<svg width="627" height="515" viewBox="0 0 627 515" fill="none" xmlns="http://www.w3.org/2000/svg">
<g clip-path="url(#clip0_15_1204)">
<path d="M171.12 482.994C171.12 483.551 171.446 484 171.852 484H536.831C537.24 484 537.563 483.552 537.563 482.994C537.563 482.435 537.237 481.987 536.831 481.987H171.852C171.446 481.988 171.12 482.436 171.12 482.994Z" fill="#CCCCCC"/>
<path d="M303.175 479.676H290.144V481.833H303.175V479.676Z" fill="#B6B3C5"/>
<path d="M418.536 480.037H405.505V482.193H418.536V480.037Z" fill="#B6B3C5"/>
<path d="M373.026 383.688C372.3 387.805 370.039 391.547 366.647 394.247C363.254 396.947 358.949 398.428 354.5 398.428C350.051 398.428 345.746 396.947 342.353 394.247C338.961 391.547 336.7 387.805 335.974 383.688H288.578V480.035H420.424V383.688H373.026Z" fill="#D6D6E3"/>
<path d="M420.805 472.401H288.962V475.755H420.805V472.401Z" fill="#090814"/>
<path d="M619.65 386.206H89.3501C87.4014 386.204 85.5331 385.477 84.1552 384.184C82.7772 382.892 82.0022 381.139 82 379.312V95.432C82.002 93.604 82.777 91.8514 84.1549 90.5588C85.5329 89.2661 87.4012 88.539 89.3501 88.537H619.65C621.599 88.5392 623.467 89.2663 624.845 90.5587C626.223 91.8512 626.998 93.6036 627 95.4314V379.312C626.998 381.139 626.223 382.892 624.845 384.184C623.467 385.477 621.599 386.204 619.65 386.206Z" fill="#090814"/>
<path d="M613.969 100.04H95.0303V374.701H613.969V100.04Z" fill="white"/>
<path d="M426.799 158.72H161.413C158.4 158.72 155.957 161.011 155.957 163.838V310.904C155.957 313.731 158.4 316.023 161.413 316.023H426.799C429.813 316.023 432.256 313.731 432.256 310.904V163.838C432.256 161.011 429.813 158.72 426.799 158.72Z" fill="#F2F2F2"/>
<path d="M426.428 163.416H161.113V310.968H426.428V163.416Z" fill="white"/>
<path d="M547.587 158.72H456.753C453.739 158.72 451.296 161.011 451.296 163.838V226.515C451.296 229.342 453.739 231.633 456.753 231.633H547.587C550.601 231.633 553.044 229.342 553.044 226.515V163.838C553.044 161.011 550.601 158.72 547.587 158.72Z" fill="#F2F2F2"/>
<path d="M547.988 162.343H456.352V228.011H547.988V162.343Z" fill="white"/>
<path d="M547.587 243.107H456.753C453.739 243.107 451.296 245.399 451.296 248.226V310.903C451.296 313.73 453.739 316.021 456.753 316.021H547.587C550.601 316.021 553.044 313.73 553.044 310.903V248.226C553.044 245.399 550.601 243.107 547.587 243.107Z" fill="#F2F2F2"/>
<path d="M547.988 246.731H456.352V312.399H547.988V246.731Z" fill="white"/>
<path d="M521.588 189.334C520.054 185.639 517.26 182.524 513.641 180.475C509.686 178.204 505.316 176.644 500.753 175.875C496.247 175.251 491.652 175.492 487.248 176.584C485.125 177.1 482.784 177.699 480.993 178.934C479.28 180.115 478.108 182.057 477.153 183.802C476.238 185.474 475.668 187.315 476.163 189.187C476.702 190.892 477.823 192.383 479.354 193.431C480.658 194.397 482.481 195.675 484.224 195.077C484.323 195.043 484.418 194.999 484.506 194.944C487.517 195.803 490.508 194.554 493.601 193.575C495.48 192.98 497.368 192.679 499.255 193.422C501.098 194.231 502.654 195.522 503.736 197.139C504.791 198.61 505.485 200.284 506.642 201.696C507.218 202.423 507.949 203.029 508.79 203.474C509.631 203.919 510.561 204.194 511.522 204.281C515.257 204.673 520.213 204.312 522.367 200.995C524.654 197.46 523.154 192.852 521.588 189.334ZM483.466 183.906L485.128 184.083C484.072 184.261 483.085 184.695 482.263 185.343C481.951 185.59 481.661 185.861 481.398 186.154C481.405 186.13 481.41 186.108 481.418 186.084C481.581 185.608 481.847 185.169 482.199 184.794C482.552 184.419 482.983 184.117 483.466 183.906V183.906ZM502.062 187.224C502.185 187.311 502.328 187.368 502.479 187.391L502.532 187.4C502.635 187.455 502.738 187.51 502.842 187.565C502.831 187.58 502.822 187.597 502.811 187.613L502.051 187.541C502.069 187.436 502.073 187.33 502.062 187.224ZM508.765 194.659C508.709 194.715 508.66 194.776 508.618 194.842L508.544 194.74C508.612 194.702 508.687 194.675 508.765 194.659ZM513.094 199.055L513.845 199.148C513.798 199.224 513.763 199.307 513.742 199.393C513.564 199.398 513.385 199.401 513.206 199.402L513.094 199.055ZM516.731 197.05L517.033 197.002C517.192 196.978 517.343 196.921 517.476 196.837C517.476 196.853 517.476 196.87 517.476 196.887C517.476 196.943 517.484 197.014 517.492 197.094C517.467 197.135 517.442 197.176 517.415 197.216L516.728 197.05H516.731ZM503.819 184.525C503.698 184.431 503.562 184.356 503.416 184.302C502.704 184.045 501.975 183.831 501.233 183.663C501.122 183.565 501.014 183.465 500.908 183.361C501.534 183.477 502.152 183.625 502.76 183.803C503.54 184.038 504.305 184.314 505.052 184.63C504.64 184.587 504.228 184.552 503.816 184.524L503.819 184.525ZM510.776 184.962C510.412 184.749 510.047 184.54 509.681 184.336C510.057 184.535 510.428 184.744 510.794 184.962H510.776ZM518.275 188.173C517.302 187.056 516.226 186.022 515.059 185.082C515.15 184.888 515.197 184.678 515.195 184.466C516.416 185.548 517.454 186.798 518.273 188.173L518.275 188.173ZM504.289 179.034L503.828 178.934C502.365 178.624 500.876 178.291 499.373 178.008C499.454 178.017 499.534 178.024 499.615 178.034C501.202 178.231 502.767 178.566 504.289 179.034H504.289Z" fill="#17A589"/>
<path d="M505.559 218.225C504.167 218.188 502.435 218.143 501.101 217.229C500.704 216.945 500.378 216.584 500.145 216.17C499.912 215.756 499.779 215.299 499.754 214.831C499.73 214.499 499.788 214.166 499.924 213.859C500.06 213.551 500.27 213.277 500.537 213.058C500.935 212.78 501.4 212.599 501.891 212.533C502.382 212.467 502.883 212.517 503.348 212.678L502.213 204.888L503.047 204.781L504.382 213.936L503.686 213.636C502.878 213.289 501.77 213.112 501.081 213.658C500.912 213.801 500.78 213.978 500.696 214.176C500.612 214.374 500.578 214.588 500.596 214.801C500.616 215.149 500.716 215.488 500.889 215.797C501.062 216.105 501.304 216.375 501.598 216.588C502.635 217.3 504.016 217.391 505.582 217.433L505.559 218.225Z" fill="#0B2B3F"/>
<path d="M498.088 205.559H493.555V206.349H498.088V205.559Z" fill="#0B2B3F"/>
<path d="M512.399 205.559H507.865V206.349H512.399V205.559Z" fill="#0B2B3F"/>
<path d="M485.678 194.656C482.026 194.266 479.198 190.984 478.889 187.656C478.519 183.695 480.978 179.933 484.352 177.711C487.88 175.386 492.276 174.416 496.529 174.202C504.825 173.815 512.979 176.336 519.404 181.274C522.59 183.757 525.567 186.919 526.694 190.739C527.674 194.057 526.876 197.815 524.034 200.139C523.331 200.708 522.509 201.134 521.621 201.391C520.733 201.647 519.797 201.728 518.874 201.629C516.667 201.414 514.631 200.325 512.868 199.123C509.439 196.784 506.624 193.526 502.446 192.304C499.383 191.409 495.408 192.197 493.537 194.795C493.112 195.39 492.836 196.069 492.732 196.778C492.693 196.93 492.717 197.089 492.799 197.224C492.881 197.36 493.014 197.461 493.172 197.507C493.334 197.548 493.506 197.528 493.651 197.45C493.797 197.373 493.904 197.245 493.949 197.094C494.44 193.821 498.731 192.6 501.741 193.347C506.13 194.435 509.077 198.111 512.678 200.445C514.542 201.749 516.739 202.571 519.048 202.83C521.049 202.977 523.036 202.405 524.604 201.23C527.681 198.951 528.858 195.032 528.177 191.505C527.389 187.419 524.457 183.917 521.24 181.205C514.718 175.766 506.25 172.832 497.525 172.987C493.075 173.083 488.432 173.947 484.598 176.151C480.879 178.291 478.005 181.871 477.629 186.033C477.459 187.878 477.879 189.728 478.833 191.348C479.788 192.969 481.236 194.286 482.991 195.133C483.839 195.51 484.748 195.75 485.681 195.845C486.487 195.931 486.48 194.746 485.681 194.661L485.678 194.656Z" fill="#0B2B3F"/>
<path d="M202.854 187.017L195.769 187.046C194.683 187.05 193.806 187.877 193.808 188.893L193.813 190.61C193.816 191.626 194.698 192.446 195.784 192.442L202.868 192.413C203.954 192.408 204.832 191.581 204.829 190.565L204.824 188.849C204.821 187.833 203.939 187.013 202.854 187.017Z" fill="#E6E6E6"/>
<path d="M262.879 186.827L255.794 186.855C254.709 186.86 253.831 187.687 253.834 188.703L253.838 190.419C253.841 191.436 254.723 192.256 255.809 192.251L262.893 192.222C263.979 192.218 264.857 191.391 264.854 190.375L264.849 188.658C264.846 187.642 263.964 186.822 262.879 186.827Z" fill="#17A589"/>
<path d="M279.884 186.769L272.799 186.797C271.713 186.802 270.836 187.629 270.839 188.645L270.843 190.362C270.846 191.378 271.728 192.198 272.814 192.193L279.898 192.164C280.984 192.16 281.862 191.333 281.859 190.317L281.854 188.6C281.851 187.584 280.969 186.764 279.884 186.769Z" fill="#E6E6E6"/>
<path d="M246.55 186.425L212.093 186.565C211.008 186.569 210.13 187.393 210.133 188.405L210.138 190.114C210.14 191.126 211.022 191.943 212.107 191.939L246.564 191.799C247.649 191.795 248.527 190.971 248.524 189.959L248.519 188.25C248.517 187.238 247.635 186.421 246.55 186.425Z" fill="#E6E6E6"/>
<path d="M326.582 186.164L292.125 186.303C291.04 186.308 290.162 187.132 290.165 188.144L290.17 189.853C290.173 190.865 291.055 191.682 292.14 191.677L326.596 191.538C327.682 191.533 328.559 190.71 328.556 189.698L328.552 187.988C328.549 186.976 327.667 186.16 326.582 186.164Z" fill="#F2F2F2"/>
<path d="M203.115 199.215L196.03 199.244C194.944 199.248 194.067 200.075 194.069 201.092L194.074 202.808C194.077 203.824 194.959 204.644 196.045 204.64L203.129 204.611C204.215 204.606 205.093 203.779 205.09 202.763L205.085 201.047C205.082 200.031 204.2 199.211 203.115 199.215Z" fill="#E6E6E6"/>
<path d="M263.139 199.025L256.054 199.053C254.968 199.058 254.091 199.885 254.093 200.901L254.098 202.617C254.101 203.634 254.983 204.454 256.069 204.449L263.153 204.42C264.239 204.416 265.116 203.589 265.114 202.573L265.109 200.856C265.106 199.84 264.224 199.02 263.139 199.025Z" fill="#17A589"/>
<path d="M280.145 198.967L273.061 198.996C271.975 199 271.097 199.827 271.1 200.843L271.105 202.56C271.108 203.576 271.99 204.396 273.075 204.391L280.16 204.363C281.246 204.358 282.123 203.531 282.121 202.515L282.116 200.799C282.113 199.782 281.231 198.962 280.145 198.967Z" fill="#E6E6E6"/>
<path d="M246.811 198.623L212.354 198.763C211.269 198.767 210.391 199.591 210.394 200.603L210.399 202.312C210.401 203.324 211.283 204.141 212.368 204.137L246.825 203.997C247.91 203.993 248.788 203.169 248.785 202.157L248.78 200.448C248.778 199.436 247.896 198.619 246.811 198.623Z" fill="#E6E6E6"/>
<path d="M326.843 198.364L292.386 198.504C291.301 198.508 290.423 199.332 290.426 200.344L290.431 202.053C290.434 203.065 291.316 203.882 292.401 203.878L326.857 203.738C327.943 203.734 328.82 202.91 328.817 201.898L328.813 200.189C328.81 199.177 327.928 198.36 326.843 198.364Z" fill="#F2F2F2"/>
<path d="M234.956 211.314L227.872 211.343C226.786 211.347 225.908 212.175 225.911 213.191L225.916 214.907C225.919 215.923 226.801 216.743 227.886 216.739L234.971 216.71C236.057 216.706 236.934 215.878 236.932 214.862L236.927 213.146C236.924 212.13 236.042 211.31 234.956 211.314Z" fill="#E6E6E6"/>
<path d="M294.982 211.12L287.897 211.149C286.812 211.153 285.934 211.981 285.937 212.997L285.941 214.713C285.944 215.729 286.826 216.549 287.912 216.545L294.996 216.516C296.082 216.511 296.96 215.684 296.957 214.668L296.952 212.952C296.95 211.936 296.067 211.116 294.982 211.12Z" fill="#17A589"/>
<path d="M311.989 211.062L304.904 211.091C303.818 211.095 302.941 211.923 302.943 212.939L302.948 214.655C302.951 215.671 303.833 216.491 304.919 216.487L312.003 216.458C313.089 216.454 313.967 215.626 313.964 214.61L313.959 212.894C313.956 211.878 313.074 211.058 311.989 211.062Z" fill="#E6E6E6"/>
<path d="M278.654 210.719L244.197 210.858C243.112 210.863 242.234 211.686 242.237 212.698L242.242 214.408C242.245 215.42 243.127 216.236 244.212 216.232L278.668 216.093C279.754 216.088 280.631 215.264 280.628 214.252L280.624 212.543C280.621 211.531 279.739 210.714 278.654 210.719Z" fill="#E6E6E6"/>
<path d="M203.094 247.171L196.01 247.2C194.924 247.204 194.046 248.032 194.049 249.048L194.054 250.764C194.057 251.78 194.939 252.6 196.024 252.596L203.109 252.567C204.195 252.563 205.072 251.735 205.069 250.719L205.065 249.003C205.062 247.987 204.18 247.167 203.094 247.171Z" fill="#17A589"/>
<path d="M220.1 247.116L213.015 247.144C211.93 247.149 211.052 247.976 211.055 248.992L211.059 250.709C211.062 251.725 211.944 252.545 213.03 252.54L220.114 252.511C221.2 252.507 222.078 251.68 222.075 250.664L222.07 248.947C222.067 247.931 221.185 247.111 220.1 247.116Z" fill="#E6E6E6"/>
<path d="M266.802 247.415L232.345 247.554C231.26 247.558 230.382 248.382 230.385 249.394L230.39 251.104C230.393 252.115 231.274 252.932 232.36 252.928L266.816 252.788C267.902 252.784 268.779 251.96 268.776 250.948L268.772 249.239C268.769 248.227 267.887 247.41 266.802 247.415Z" fill="#F2F2F2"/>
<path d="M246.847 234.83L239.763 234.859C238.677 234.863 237.799 235.69 237.802 236.706L237.807 238.423C237.81 239.439 238.692 240.259 239.777 240.254L246.862 240.226C247.947 240.221 248.825 239.394 248.822 238.378L248.818 236.662C248.815 235.646 247.933 234.825 246.847 234.83Z" fill="#17A589"/>
<path d="M263.855 234.776L256.771 234.805C255.685 234.809 254.807 235.636 254.81 236.652L254.815 238.369C254.818 239.385 255.7 240.205 256.785 240.2L263.87 240.172C264.956 240.167 265.833 239.34 265.83 238.324L265.826 236.607C265.823 235.591 264.941 234.771 263.855 234.776Z" fill="#17A589"/>
<path d="M230.522 235.333L196.066 235.473C194.981 235.477 194.103 236.301 194.106 237.313L194.111 239.022C194.113 240.034 194.995 240.851 196.08 240.847L230.537 240.707C231.622 240.703 232.5 239.879 232.497 238.867L232.492 237.158C232.49 236.146 231.608 235.329 230.522 235.333Z" fill="#E6E6E6"/>
<path d="M310.556 235.073L276.099 235.213C275.014 235.217 274.137 236.041 274.14 237.053L274.144 238.762C274.147 239.774 275.029 240.591 276.114 240.587L310.571 240.447C311.656 240.443 312.533 239.619 312.531 238.607L312.526 236.898C312.523 235.886 311.641 235.069 310.556 235.073Z" fill="#F2F2F2"/>
<path d="M234.997 222.668L227.913 222.697C226.827 222.702 225.95 223.529 225.952 224.545L225.957 226.261C225.96 227.277 226.842 228.097 227.927 228.093L235.012 228.064C236.098 228.06 236.975 227.232 236.973 226.216L236.968 224.5C236.965 223.484 236.083 222.664 234.997 222.668Z" fill="#E6E6E6"/>
<path d="M295.022 222.475L287.937 222.504C286.851 222.509 285.974 223.336 285.976 224.352L285.981 226.068C285.984 227.084 286.866 227.904 287.952 227.9L295.036 227.871C296.122 227.867 297 227.039 296.997 226.023L296.992 224.307C296.989 223.291 296.107 222.471 295.022 222.475Z" fill="#17A589"/>
<path d="M312.03 222.418L304.945 222.446C303.859 222.451 302.982 223.278 302.984 224.294L302.989 226.01C302.992 227.026 303.874 227.847 304.96 227.842L312.044 227.813C313.13 227.809 314.008 226.982 314.005 225.966L314 224.249C313.997 223.233 313.115 222.413 312.03 222.418Z" fill="#E6E6E6"/>
<path d="M278.698 222.978L244.241 223.117C243.156 223.122 242.279 223.945 242.281 224.957L242.286 226.667C242.289 227.679 243.171 228.495 244.256 228.491L278.713 228.352C279.798 228.347 280.675 227.523 280.672 226.511L280.668 224.802C280.665 223.79 279.783 222.973 278.698 222.978Z" fill="#E6E6E6"/>
<path d="M215.595 227.799C217.104 228.199 218.676 227.374 219.104 225.956C219.533 224.538 218.657 223.064 217.148 222.664C215.639 222.264 214.068 223.089 213.639 224.507C213.21 225.925 214.086 227.399 215.595 227.799Z" fill="#17A589"/>
<path d="M215.526 216.542C217.035 216.942 218.606 216.117 219.035 214.699C219.464 213.281 218.588 211.807 217.079 211.407C215.57 211.007 213.999 211.832 213.57 213.25C213.141 214.668 214.017 216.142 215.526 216.542Z" fill="#17A589"/>
<path d="M507.052 286.561L480.061 293.08C479.146 293.3 478.175 293.171 477.361 292.72C476.547 292.269 475.957 291.534 475.72 290.676L467.558 260.943C467.323 260.085 467.461 259.173 467.941 258.41C468.422 257.647 469.206 257.093 470.121 256.871L495.231 250.806L501.658 253.505L509.615 282.487C509.85 283.346 509.713 284.258 509.232 285.021C508.751 285.785 507.967 286.339 507.052 286.561Z" fill="#F2F2F2"/>
<path d="M470.38 257.803C469.728 257.961 469.17 258.355 468.828 258.898C468.486 259.442 468.388 260.091 468.555 260.702L476.717 290.435C476.886 291.046 477.306 291.57 477.885 291.891C478.465 292.212 479.156 292.304 479.808 292.147L506.799 285.628C507.45 285.47 508.008 285.076 508.35 284.532C508.693 283.989 508.791 283.34 508.624 282.728L500.79 254.194L495.142 251.822L470.38 257.803Z" fill="white"/>
<path d="M501.589 253.658L497.412 254.666C497.107 254.74 496.783 254.697 496.512 254.547C496.241 254.397 496.044 254.152 495.966 253.865L495.171 250.972C495.168 250.959 495.168 250.946 495.172 250.933C495.177 250.921 495.184 250.91 495.195 250.901C495.206 250.893 495.219 250.887 495.232 250.885C495.246 250.883 495.26 250.885 495.273 250.89L501.6 253.526C501.613 253.533 501.623 253.543 501.63 253.555C501.637 253.567 501.64 253.58 501.639 253.594C501.638 253.608 501.632 253.621 501.623 253.631C501.614 253.642 501.602 253.65 501.588 253.654L501.589 253.658Z" fill="#F2F2F2"/>
<path d="M499.391 279.048L487.102 282.016C487.026 282.035 486.947 282.039 486.87 282.028C486.793 282.018 486.719 281.994 486.652 281.957C486.585 281.919 486.526 281.87 486.479 281.812C486.432 281.753 486.398 281.687 486.379 281.616C486.359 281.545 486.355 281.471 486.366 281.399C486.377 281.327 486.403 281.257 486.442 281.194C486.482 281.131 486.535 281.076 486.597 281.032C486.659 280.988 486.73 280.956 486.806 280.938L499.094 277.97C499.169 277.952 499.248 277.947 499.325 277.958C499.402 277.968 499.477 277.992 499.544 278.03C499.611 278.067 499.67 278.116 499.716 278.174C499.763 278.233 499.797 278.299 499.817 278.37C499.836 278.441 499.841 278.515 499.83 278.587C499.819 278.66 499.793 278.729 499.753 278.792C499.713 278.855 499.661 278.91 499.599 278.954C499.536 278.998 499.465 279.03 499.39 279.048L499.391 279.048Z" fill="#CCCCCC"/>
<path d="M502.263 280.295L487.604 283.834C487.451 283.871 487.289 283.849 487.154 283.774C487.018 283.699 486.92 283.577 486.881 283.434C486.841 283.291 486.864 283.139 486.944 283.012C487.024 282.884 487.155 282.792 487.308 282.755L501.967 279.214C502.12 279.177 502.282 279.199 502.417 279.274C502.553 279.349 502.651 279.472 502.69 279.615C502.73 279.758 502.707 279.91 502.627 280.037C502.547 280.164 502.416 280.256 502.263 280.293V280.295Z" fill="#CCCCCC"/>
<path d="M482.088 285.591C483.247 285.591 484.186 284.71 484.186 283.623C484.186 282.536 483.247 281.655 482.088 281.655C480.93 281.655 479.99 282.536 479.99 283.623C479.99 284.71 480.93 285.591 482.088 285.591Z" fill="#E6E6E6"/>
<path d="M498.085 273.897L481.764 277.837C481.293 277.95 480.793 277.883 480.374 277.651C479.955 277.419 479.651 277.04 479.528 276.599L476.109 264.134C475.989 263.692 476.06 263.223 476.308 262.83C476.555 262.437 476.958 262.151 477.429 262.036L493.749 258.096C494.221 257.983 494.721 258.05 495.14 258.282C495.559 258.514 495.863 258.893 495.986 259.334L499.406 271.797C499.526 272.24 499.455 272.709 499.207 273.103C498.96 273.496 498.556 273.782 498.085 273.897Z" fill="white"/>
<path d="M498.085 273.897L481.764 277.837C481.293 277.95 480.793 277.883 480.374 277.651C479.955 277.419 479.651 277.04 479.528 276.599L476.109 264.134C475.989 263.692 476.06 263.223 476.308 262.83C476.555 262.437 476.958 262.151 477.429 262.036L493.749 258.096C494.221 257.983 494.721 258.05 495.14 258.282C495.559 258.514 495.863 258.893 495.986 259.334L499.406 271.797C499.526 272.24 499.455 272.709 499.207 273.103C498.96 273.496 498.556 273.782 498.085 273.897ZM477.486 262.235C477.07 262.335 476.714 262.587 476.495 262.934C476.277 263.281 476.214 263.695 476.321 264.085L479.741 276.548C479.848 276.938 480.116 277.272 480.486 277.477C480.856 277.682 481.298 277.741 481.714 277.641L498.034 273.7C498.45 273.599 498.806 273.348 499.025 273.001C499.243 272.654 499.306 272.24 499.199 271.849L495.779 259.387C495.672 258.997 495.403 258.663 495.033 258.458C494.663 258.253 494.222 258.194 493.806 258.294L477.486 262.235Z" fill="#E6E6E6"/>
<path d="M492.92 262.288L484.684 264.277C484.612 264.296 484.535 264.288 484.468 264.256C484.402 264.224 484.351 264.169 484.326 264.103C484.315 264.068 484.311 264.032 484.314 263.996C484.318 263.96 484.33 263.925 484.349 263.893C484.367 263.861 484.393 263.834 484.423 263.812C484.454 263.789 484.489 263.773 484.526 263.764L492.91 261.74C493.251 261.901 493.16 262.23 492.92 262.288H492.92Z" fill="#F2F2F2"/>
<path d="M493.293 263.644L485.056 265.632C484.984 265.651 484.907 265.644 484.841 265.612C484.774 265.579 484.724 265.525 484.699 265.458C484.687 265.424 484.683 265.388 484.687 265.352C484.691 265.316 484.702 265.281 484.721 265.249C484.74 265.217 484.765 265.19 484.796 265.167C484.826 265.145 484.861 265.129 484.899 265.12L493.283 263.096C493.624 263.257 493.532 263.586 493.292 263.644H493.293Z" fill="#F2F2F2"/>
<path d="M483.488 266.833L480.975 267.441C480.892 267.46 480.805 267.449 480.732 267.408C480.659 267.368 480.606 267.302 480.585 267.225L479.821 264.443C479.8 264.365 479.812 264.284 479.855 264.215C479.899 264.147 479.969 264.097 480.051 264.077L482.564 263.47C482.647 263.45 482.734 263.462 482.807 263.502C482.88 263.543 482.933 263.609 482.954 263.686L483.718 266.468C483.739 266.545 483.727 266.627 483.684 266.695C483.64 266.764 483.57 266.814 483.488 266.833Z" fill="#E6E6E6"/>
<path d="M494.031 266.424L481.46 269.459C481.388 269.478 481.311 269.471 481.245 269.438C481.178 269.406 481.128 269.351 481.103 269.285C481.091 269.251 481.087 269.215 481.091 269.179C481.095 269.143 481.106 269.108 481.125 269.076C481.144 269.044 481.169 269.017 481.2 268.994C481.23 268.972 481.265 268.956 481.302 268.947L494.02 265.876C494.36 266.037 494.271 266.366 494.031 266.424Z" fill="#F2F2F2"/>
<path d="M494.403 267.78L481.832 270.815C481.76 270.834 481.683 270.827 481.617 270.794C481.55 270.762 481.5 270.707 481.475 270.641C481.463 270.607 481.459 270.57 481.463 270.534C481.467 270.498 481.478 270.463 481.497 270.432C481.516 270.4 481.541 270.372 481.572 270.35C481.602 270.328 481.637 270.312 481.674 270.303L494.392 267.232C494.731 267.39 494.643 267.722 494.403 267.78Z" fill="#F2F2F2"/>
<path d="M494.775 269.135L482.204 272.17C482.132 272.189 482.055 272.181 481.989 272.149C481.923 272.117 481.872 272.062 481.847 271.996C481.835 271.961 481.831 271.925 481.835 271.889C481.839 271.853 481.85 271.818 481.869 271.786C481.888 271.755 481.913 271.727 481.944 271.705C481.974 271.682 482.009 271.666 482.047 271.657L494.765 268.586C495.104 268.748 495.015 269.077 494.775 269.135Z" fill="#F2F2F2"/>
<path d="M495.147 270.489L482.576 273.524C482.504 273.543 482.427 273.536 482.361 273.504C482.294 273.471 482.244 273.417 482.219 273.35C482.207 273.316 482.203 273.279 482.207 273.243C482.211 273.207 482.222 273.173 482.241 273.141C482.26 273.109 482.285 273.081 482.316 273.059C482.346 273.037 482.381 273.021 482.419 273.012L495.137 269.941C495.478 270.102 495.388 270.431 495.147 270.489Z" fill="#F2F2F2"/>
<path d="M495.518 271.845L482.948 274.88C482.876 274.899 482.799 274.892 482.732 274.859C482.666 274.827 482.615 274.772 482.59 274.706C482.579 274.672 482.575 274.635 482.579 274.599C482.582 274.563 482.594 274.528 482.613 274.497C482.631 274.465 482.657 274.437 482.687 274.415C482.718 274.393 482.753 274.377 482.79 274.368L495.508 271.297C495.848 271.458 495.758 271.787 495.518 271.845Z" fill="#F2F2F2"/>
<path d="M482.242 284.309C482.197 284.32 482.149 284.317 482.106 284.3L481.534 284.073C481.508 284.063 481.484 284.047 481.464 284.028C481.443 284.009 481.428 283.986 481.417 283.961C481.406 283.936 481.401 283.909 481.401 283.882C481.401 283.855 481.407 283.829 481.418 283.804C481.43 283.779 481.446 283.757 481.466 283.738C481.487 283.719 481.511 283.704 481.538 283.694C481.565 283.684 481.593 283.679 481.622 283.679C481.651 283.679 481.679 283.685 481.705 283.695L482.076 283.843L482.561 282.772C482.573 282.747 482.589 282.725 482.61 282.706C482.63 282.687 482.654 282.672 482.681 282.662C482.708 282.652 482.736 282.647 482.765 282.647C482.794 282.647 482.822 282.653 482.849 282.663C482.902 282.685 482.944 282.725 482.966 282.775C482.988 282.826 482.987 282.882 482.965 282.933L482.394 284.192C482.38 284.221 482.36 284.246 482.335 284.267C482.309 284.288 482.279 284.302 482.246 284.31L482.242 284.309Z" fill="white"/>
<path d="M517.404 297.889H489.533C488.588 297.888 487.682 297.536 487.013 296.909C486.345 296.282 485.969 295.432 485.968 294.546V263.843C485.969 262.956 486.345 262.106 487.013 261.479C487.682 260.853 488.588 260.5 489.533 260.499H515.462L520.968 264.616V294.546C520.967 295.432 520.591 296.282 519.923 296.908C519.255 297.535 518.349 297.888 517.404 297.889Z" fill="#E6E6E6"/>
<path d="M489.536 261.462C488.863 261.463 488.217 261.714 487.741 262.161C487.265 262.607 486.998 263.212 486.997 263.844V294.547C486.998 295.178 487.265 295.783 487.741 296.23C488.217 296.676 488.863 296.927 489.536 296.928H517.407C518.08 296.927 518.725 296.676 519.201 296.23C519.677 295.783 519.945 295.178 519.945 294.547V265.08L515.106 261.462H489.536Z" fill="white"/>
<path d="M511.983 270.39H499.291C499.133 270.39 498.982 270.331 498.871 270.227C498.759 270.122 498.697 269.981 498.697 269.833C498.697 269.685 498.759 269.544 498.871 269.439C498.982 269.335 499.133 269.276 499.291 269.276H511.977C512.135 269.276 512.286 269.335 512.397 269.439C512.508 269.544 512.571 269.685 512.571 269.833C512.571 269.981 512.508 270.122 512.397 270.227C512.286 270.331 512.135 270.39 511.977 270.39H511.983Z" fill="#17A589"/>
<path d="M514.433 272.269H499.291C499.133 272.269 498.982 272.211 498.871 272.106C498.759 272.002 498.697 271.86 498.697 271.712C498.697 271.565 498.759 271.423 498.871 271.319C498.982 271.214 499.133 271.156 499.291 271.156H514.433C514.59 271.156 514.741 271.214 514.852 271.319C514.964 271.423 515.026 271.565 515.026 271.712C515.026 271.86 514.964 272.002 514.852 272.106C514.741 272.211 514.59 272.269 514.433 272.269Z" fill="#17A589"/>
<path d="M511.983 277.698H499.296C499.139 277.698 498.988 277.757 498.877 277.862C498.765 277.966 498.703 278.108 498.703 278.255C498.703 278.403 498.765 278.545 498.877 278.649C498.988 278.754 499.139 278.812 499.296 278.812H511.983C512.14 278.812 512.291 278.754 512.403 278.649C512.514 278.545 512.577 278.403 512.577 278.255C512.577 278.108 512.514 277.966 512.403 277.862C512.291 277.757 512.14 277.698 511.983 277.698Z" fill="#CCCCCC"/>
<path d="M514.43 279.578H499.294C499.137 279.578 498.986 279.636 498.875 279.741C498.763 279.845 498.701 279.987 498.701 280.135C498.701 280.282 498.763 280.424 498.875 280.529C498.986 280.633 499.137 280.692 499.294 280.692H514.43C514.587 280.692 514.738 280.633 514.85 280.529C514.961 280.424 515.023 280.282 515.023 280.135C515.023 279.987 514.961 279.845 514.85 279.741C514.738 279.636 514.587 279.578 514.43 279.578Z" fill="#CCCCCC"/>
<path d="M511.983 287.231H499.291C499.133 287.231 498.982 287.172 498.871 287.068C498.759 286.963 498.697 286.822 498.697 286.674C498.697 286.526 498.759 286.385 498.871 286.28C498.982 286.176 499.133 286.117 499.291 286.117H511.977C512.135 286.117 512.286 286.176 512.397 286.28C512.508 286.385 512.571 286.526 512.571 286.674C512.571 286.822 512.508 286.963 512.397 287.068C512.286 287.172 512.135 287.231 511.977 287.231H511.983Z" fill="#CCCCCC"/>
<path d="M514.433 289.113H499.291C499.133 289.113 498.982 289.054 498.871 288.95C498.759 288.845 498.697 288.703 498.697 288.556C498.697 288.408 498.759 288.266 498.871 288.162C498.982 288.057 499.133 287.999 499.291 287.999H514.433C514.59 287.999 514.741 288.057 514.852 288.162C514.964 288.266 515.026 288.408 515.026 288.556C515.026 288.703 514.964 288.845 514.852 288.95C514.741 289.054 514.59 289.113 514.433 289.113Z" fill="#CCCCCC"/>
<path d="M494.01 272.741C495.169 272.741 496.108 271.86 496.108 270.773C496.108 269.686 495.169 268.805 494.01 268.805C492.851 268.805 491.912 269.686 491.912 270.773C491.912 271.86 492.851 272.741 494.01 272.741Z" fill="#17A589"/>
<path d="M493.803 271.523C493.755 271.523 493.71 271.508 493.672 271.482L493.179 271.128C493.132 271.095 493.102 271.046 493.095 270.992C493.087 270.938 493.103 270.883 493.138 270.84C493.173 270.796 493.226 270.768 493.283 270.761C493.341 270.754 493.399 270.768 493.445 270.802L493.764 271.031L494.52 270.107C494.555 270.064 494.607 270.036 494.665 270.029C494.722 270.022 494.78 270.037 494.826 270.07C494.872 270.103 494.902 270.152 494.91 270.206C494.917 270.26 494.902 270.314 494.867 270.358L493.98 271.445C493.959 271.47 493.933 271.491 493.903 271.504C493.872 271.518 493.839 271.525 493.805 271.525L493.803 271.523Z" fill="white"/>
<path d="M496.323 279.195C496.323 279.454 496.269 279.71 496.164 279.949C496.058 280.187 495.904 280.404 495.709 280.587C495.514 280.77 495.283 280.915 495.028 281.014C494.773 281.113 494.501 281.164 494.225 281.164C494.207 281.165 494.189 281.165 494.171 281.164C493.759 281.154 493.358 281.03 493.02 280.808C492.683 280.586 492.422 280.275 492.271 279.914C492.121 279.554 492.087 279.16 492.174 278.781C492.261 278.403 492.465 278.057 492.761 277.787C493.056 277.517 493.43 277.334 493.836 277.263C494.242 277.191 494.661 277.233 495.041 277.383C495.421 277.534 495.745 277.786 495.974 278.109C496.202 278.431 496.323 278.81 496.323 279.197V279.195Z" fill="#17A589"/>
<path d="M494.01 289.584C495.169 289.584 496.108 288.703 496.108 287.616C496.108 286.529 495.169 285.648 494.01 285.648C492.851 285.648 491.912 286.529 491.912 287.616C491.912 288.703 492.851 289.584 494.01 289.584Z" fill="#CCCCCC"/>
<path d="M520.862 264.748H516.546C516.231 264.748 515.929 264.631 515.707 264.422C515.484 264.213 515.359 263.93 515.359 263.634V260.646C515.359 260.633 515.363 260.62 515.37 260.609C515.378 260.598 515.388 260.589 515.401 260.583C515.413 260.578 515.427 260.576 515.441 260.577C515.455 260.578 515.468 260.583 515.479 260.591L520.906 264.622C520.917 264.631 520.926 264.643 520.93 264.657C520.935 264.671 520.934 264.686 520.929 264.699C520.924 264.713 520.915 264.725 520.902 264.733C520.89 264.742 520.875 264.746 520.859 264.746L520.862 264.748Z" fill="#CCCCCC"/>
<path d="M498.7 278.256C498.701 278.108 498.763 277.967 498.875 277.862C498.986 277.758 499.137 277.699 499.294 277.698H502.456C502.641 278.051 502.772 278.426 502.847 278.812H499.294C499.137 278.812 498.986 278.754 498.875 278.65C498.763 278.545 498.701 278.404 498.7 278.256V278.256Z" fill="#17A589"/>
<path d="M502.92 279.578C502.92 279.954 502.867 280.329 502.762 280.692H499.294C499.137 280.692 498.986 280.633 498.875 280.529C498.763 280.424 498.701 280.282 498.701 280.135C498.701 279.987 498.763 279.845 498.875 279.741C498.986 279.636 499.137 279.578 499.294 279.578H502.92Z" fill="#17A589"/>
<path d="M536.719 307.787C536.637 307.913 536.529 308.023 536.402 308.11C536.275 308.197 536.131 308.26 535.978 308.294C535.825 308.329 535.667 308.335 535.511 308.313C535.356 308.29 535.207 308.239 535.072 308.162L521.097 300.164C520.825 300.009 520.631 299.759 520.556 299.469C520.481 299.18 520.532 298.874 520.697 298.619C520.863 298.365 521.129 298.182 521.438 298.112C521.747 298.042 522.073 298.09 522.344 298.245L536.32 306.242C536.454 306.319 536.571 306.42 536.664 306.539C536.757 306.658 536.824 306.794 536.861 306.937C536.898 307.081 536.904 307.23 536.88 307.376C536.856 307.521 536.801 307.661 536.719 307.787Z" fill="#0B2B3F"/>
<path d="M522.743 299.792C521.756 301.309 520.312 302.519 518.592 303.266C516.872 304.014 514.955 304.267 513.082 303.992C511.21 303.718 509.466 302.929 508.071 301.725C506.677 300.52 505.694 298.955 505.248 297.227C504.802 295.5 504.912 293.686 505.564 292.017C506.216 290.348 507.382 288.897 508.913 287.849C510.444 286.802 512.272 286.203 514.166 286.13C516.06 286.056 517.934 286.511 519.553 287.437C521.722 288.679 523.277 290.678 523.875 292.995C524.474 295.311 524.067 297.756 522.743 299.792ZM508.427 291.602C507.686 292.741 507.323 294.059 507.381 295.391C507.44 296.724 507.919 298.009 508.757 299.086C509.595 300.164 510.754 300.983 512.089 301.442C513.424 301.901 514.873 301.978 516.255 301.664C517.636 301.35 518.887 300.659 519.85 299.678C520.813 298.697 521.444 297.471 521.663 296.153C521.883 294.836 521.681 293.487 521.083 292.277C520.485 291.068 519.519 290.052 518.305 289.357C517.499 288.896 516.605 288.589 515.672 288.452C514.739 288.315 513.787 288.352 512.87 288.561C511.953 288.769 511.088 289.145 510.326 289.667C509.563 290.189 508.918 290.846 508.427 291.602Z" fill="#0B2B3F"/>
<path d="M390.518 286.163C390.399 286.163 390.281 286.14 390.172 286.094C390.063 286.049 389.965 285.983 389.885 285.9L380.375 276.169C380.267 276.059 380.136 275.971 379.99 275.911C379.844 275.85 379.686 275.819 379.527 275.819H329.274C328.511 275.818 327.78 275.534 327.241 275.028C326.702 274.522 326.399 273.836 326.398 273.121V256.122C326.399 255.407 326.702 254.721 327.241 254.215C327.78 253.709 328.511 253.425 329.274 253.424H394.38C395.143 253.425 395.874 253.709 396.413 254.215C396.952 254.721 397.256 255.407 397.257 256.122V273.119C397.256 273.834 396.952 274.52 396.413 275.026C395.874 275.532 395.143 275.816 394.38 275.817H392.535C392.229 275.818 391.937 275.931 391.721 276.134C391.506 276.336 391.384 276.61 391.384 276.897V285.351C391.385 285.515 391.332 285.674 391.234 285.809C391.136 285.944 390.997 286.047 390.834 286.106C390.734 286.142 390.627 286.161 390.519 286.161L390.518 286.163Z" fill="white"/>
<path d="M390.518 286.163C390.399 286.163 390.281 286.14 390.172 286.094C390.063 286.049 389.965 285.983 389.885 285.9L380.375 276.169C380.267 276.059 380.136 275.971 379.99 275.911C379.844 275.85 379.686 275.819 379.527 275.819H329.274C328.511 275.818 327.78 275.534 327.241 275.028C326.702 274.522 326.399 273.836 326.398 273.121V256.122C326.399 255.407 326.702 254.721 327.241 254.215C327.78 253.709 328.511 253.425 329.274 253.424H394.38C395.143 253.425 395.874 253.709 396.413 254.215C396.952 254.721 397.256 255.407 397.257 256.122V273.119C397.256 273.834 396.952 274.52 396.413 275.026C395.874 275.532 395.143 275.816 394.38 275.817H392.535C392.229 275.818 391.937 275.931 391.721 276.134C391.506 276.336 391.384 276.61 391.384 276.897V285.351C391.385 285.515 391.332 285.674 391.234 285.809C391.136 285.944 390.997 286.047 390.834 286.106C390.734 286.142 390.627 286.161 390.519 286.161L390.518 286.163ZM329.274 253.783C328.613 253.784 327.979 254.031 327.512 254.469C327.045 254.907 326.782 255.502 326.781 256.122V273.119C326.782 273.739 327.045 274.334 327.512 274.772C327.979 275.21 328.613 275.457 329.274 275.458H379.527C379.739 275.458 379.95 275.499 380.144 275.58C380.339 275.66 380.514 275.777 380.658 275.924L390.167 285.655C390.232 285.723 390.317 285.771 390.412 285.792C390.506 285.813 390.605 285.807 390.696 285.774C390.786 285.741 390.864 285.682 390.918 285.607C390.972 285.532 391.001 285.442 391 285.351V276.898C391 276.517 391.162 276.151 391.45 275.882C391.737 275.612 392.127 275.46 392.534 275.46H394.38C395.041 275.459 395.674 275.212 396.142 274.774C396.609 274.335 396.872 273.741 396.873 273.121V256.122C396.872 255.502 396.609 254.907 396.142 254.469C395.674 254.031 395.041 253.784 394.38 253.783H329.274Z" fill="#D6D6E3"/>
<path d="M333.453 260.922C334.843 260.922 335.97 259.865 335.97 258.561C335.97 257.257 334.843 256.2 333.453 256.2C332.063 256.2 330.937 257.257 330.937 258.561C330.937 259.865 332.063 260.922 333.453 260.922Z" fill="#17A589"/>
<path d="M391.444 271.628H332.211C331.855 271.628 331.513 271.496 331.262 271.259C331.01 271.023 330.868 270.703 330.868 270.369C330.868 270.035 331.01 269.715 331.262 269.479C331.513 269.243 331.855 269.11 332.211 269.11H391.444C391.62 269.11 391.794 269.143 391.957 269.206C392.12 269.269 392.268 269.362 392.393 269.479C392.517 269.596 392.616 269.734 392.684 269.887C392.751 270.04 392.786 270.204 392.786 270.369C392.786 270.534 392.751 270.698 392.684 270.851C392.616 271.004 392.517 271.143 392.393 271.259C392.268 271.376 392.12 271.469 391.957 271.532C391.794 271.596 391.62 271.628 391.444 271.628Z" fill="#17A589"/>
<path d="M372.148 266.275H332.211C331.855 266.275 331.513 266.142 331.262 265.906C331.01 265.67 330.868 265.35 330.868 265.016C330.868 264.682 331.01 264.362 331.262 264.126C331.513 263.889 331.855 263.757 332.211 263.757H372.148C372.504 263.757 372.845 263.889 373.097 264.126C373.349 264.362 373.49 264.682 373.49 265.016C373.49 265.35 373.349 265.67 373.097 265.906C372.845 266.142 372.504 266.275 372.148 266.275Z" fill="#17A589"/>
<path d="M397.257 298.061C396.222 298.06 395.229 297.673 394.497 296.987C393.764 296.3 393.353 295.369 393.352 294.397V286.443C393.352 285.471 393.763 284.539 394.495 283.852C395.228 283.165 396.221 282.779 397.257 282.779C398.293 282.779 399.286 283.165 400.019 283.852C400.751 284.539 401.163 285.471 401.163 286.443V294.397C401.162 295.369 400.75 296.3 400.018 296.987C399.285 297.673 398.293 298.06 397.257 298.061Z" fill="#17A589"/>
<path d="M397.257 301.096C395.068 301.094 392.969 300.277 391.421 298.825C389.873 297.373 389.003 295.404 389 293.351C389.006 293.188 389.079 293.033 389.203 292.919C389.328 292.806 389.496 292.742 389.669 292.742C389.843 292.742 390.011 292.806 390.135 292.919C390.26 293.033 390.333 293.188 390.339 293.351C390.339 294.203 390.518 295.047 390.866 295.834C391.213 296.621 391.723 297.337 392.365 297.939C393.008 298.542 393.77 299.02 394.61 299.346C395.449 299.672 396.349 299.84 397.257 299.84C398.166 299.84 399.065 299.672 399.905 299.346C400.744 299.02 401.507 298.542 402.149 297.939C402.792 297.337 403.301 296.621 403.649 295.834C403.997 295.047 404.176 294.203 404.176 293.351C404.173 293.266 404.188 293.183 404.22 293.104C404.253 293.026 404.301 292.954 404.364 292.893C404.426 292.833 404.501 292.785 404.584 292.752C404.666 292.719 404.755 292.702 404.845 292.702C404.935 292.702 405.024 292.719 405.106 292.752C405.189 292.785 405.264 292.833 405.326 292.893C405.389 292.954 405.437 293.026 405.47 293.104C405.502 293.183 405.517 293.266 405.514 293.351C405.512 295.404 404.641 297.373 403.093 298.825C401.545 300.277 399.446 301.094 397.257 301.096Z" fill="#17A589"/>
<path d="M397.257 308.213C397.079 308.213 396.909 308.147 396.783 308.029C396.658 307.912 396.587 307.752 396.587 307.585V300.676C396.592 300.513 396.665 300.358 396.79 300.244C396.915 300.131 397.082 300.067 397.256 300.067C397.43 300.067 397.597 300.131 397.722 300.244C397.847 300.358 397.92 300.513 397.926 300.676V307.585C397.926 307.668 397.909 307.75 397.875 307.826C397.841 307.902 397.792 307.971 397.73 308.03C397.667 308.088 397.594 308.134 397.512 308.166C397.431 308.197 397.344 308.214 397.256 308.214L397.257 308.213Z" fill="#17A589"/>
<path d="M395.694 285.606C395.94 285.606 396.14 285.418 396.14 285.187C396.14 284.956 395.94 284.769 395.694 284.769C395.448 284.769 395.248 284.956 395.248 285.187C395.248 285.418 395.448 285.606 395.694 285.606Z" fill="white"/>
<path d="M395.694 289.582C395.94 289.582 396.14 289.394 396.14 289.163C396.14 288.932 395.94 288.745 395.694 288.745C395.448 288.745 395.248 288.932 395.248 289.163C395.248 289.394 395.448 289.582 395.694 289.582Z" fill="white"/>
<path d="M398.819 287.07C399.065 287.07 399.265 286.883 399.265 286.652C399.265 286.42 399.065 286.233 398.819 286.233C398.573 286.233 398.373 286.42 398.373 286.652C398.373 286.883 398.573 287.07 398.819 287.07Z" fill="white"/>
<path d="M402.56 308.326H391.954C391.864 308.329 391.775 308.315 391.691 308.285C391.607 308.254 391.531 308.208 391.467 308.15C391.402 308.091 391.351 308.021 391.316 307.944C391.281 307.866 391.263 307.783 391.263 307.698C391.263 307.614 391.281 307.531 391.316 307.453C391.351 307.376 391.402 307.306 391.467 307.247C391.531 307.189 391.607 307.143 391.691 307.112C391.775 307.082 391.864 307.068 391.954 307.071H402.56C402.65 307.068 402.739 307.082 402.823 307.112C402.907 307.143 402.983 307.189 403.048 307.247C403.112 307.306 403.163 307.376 403.198 307.453C403.233 307.531 403.251 307.614 403.251 307.698C403.251 307.783 403.233 307.866 403.198 307.944C403.163 308.021 403.112 308.091 403.048 308.15C402.983 308.208 402.907 308.254 402.823 308.285C402.739 308.315 402.65 308.329 402.56 308.326Z" fill="#17A589"/>
<path d="M577.758 30.7248C573.591 32.8784 570.042 31.3704 566.605 34.4561C567.463 31.7306 567.28 28.8098 566.089 26.197C565.68 25.3058 564.807 21.2405 565.1 20.3109C565.389 19.6455 569.738 19.8484 571.262 18.9949C572.325 18.3986 574.509 16.8113 575.729 16.984C575.793 18.5297 575.826 19.9111 576.547 21.3557C576.719 21.6961 578.477 30.3531 577.758 30.7248Z" fill="#FFB9B9"/>
<path d="M570.507 25.0575L559.356 25.3691L557.028 27.7536L553.485 40.632V60.9991C553.485 60.9991 549.156 68.1872 551.517 74.4776C554.041 81.2005 562.931 73.2652 569.622 74.1711C576.312 75.0771 586.939 75.9754 586.939 75.9754L580.642 54.1105L585.607 28.5246L579.362 22.4996L570.507 25.0588V25.0575Z" fill="#E6E6E6"/>
<path d="M527.708 32.0446C525.477 30.2411 524.661 27.6992 525.885 26.3678C527.109 25.0364 529.909 25.4196 532.14 27.2245C533.042 27.9338 533.75 28.8355 534.204 29.854L543.554 37.6089L539.581 41.6466L530.786 33.5731C529.645 33.3017 528.589 32.7778 527.708 32.0453L527.708 32.0446Z" fill="#FFB6B6"/>
<path d="M559.735 25.3684L565.894 24.8431L571.294 49.003C571.538 50.0956 571.546 51.223 571.319 52.3188C571.091 53.4145 570.632 54.4564 569.968 55.3831C569.305 56.3098 568.45 57.1027 567.455 57.7149C566.46 58.3271 565.344 58.7463 564.173 58.9479L559.735 59.7124L531.445 36.3485L535.579 29.8866L556.441 42.1623L559.736 25.3678L559.735 25.3684Z" fill="#E6E6E6"/>
<path d="M542.121 143.894C542.121 143.894 536.496 153.692 536.897 153.315C537.299 152.939 544.128 155.2 544.128 155.2L548.146 145.401L542.121 143.894Z" fill="#FFB6B6"/>
<path d="M533.819 75.3048C533.819 75.3048 530.94 86.1013 531.227 85.6432C531.514 85.1851 538.73 85.7993 538.73 85.7993L540.052 75.3745L533.815 75.3054L533.819 75.3048Z" fill="#FFB6B6"/>
<path d="M583.906 73.4897C571.194 75.1647 559.713 73.7041 550.358 66.8237C550.358 66.8237 543.527 88.3054 555.983 90.5664C568.438 92.8274 582.299 88.9413 583.906 85.1723C585.513 81.4033 583.906 73.4897 583.906 73.4897Z" fill="#090814"/>
<path d="M560.204 80.2734L546.343 110.919L539.914 146.345L548.351 148.23L563.444 115.63L583.906 84.4206L560.204 80.2734Z" fill="#090814"/>
<path d="M558.393 71.5352C558.393 71.5352 555.179 48.1694 549.152 46.6614C546.629 46.0499 544.002 45.9147 541.423 46.2634C540.419 46.3925 539.485 46.817 538.755 47.4758C538.025 48.1346 537.537 48.9937 537.36 49.9294L531.883 79.143H539.628L542.121 71.2287L548.75 82.0873L558.393 71.5352Z" fill="#090814"/>
<path d="M538.706 82.8404L531.049 82.0867L529.867 86.2325C529.867 86.2325 517.412 96.7853 523.84 97.5389C530.269 98.2926 536.296 94.148 536.296 94.148L545.139 89.3899C545.139 89.3899 541.72 80.8397 539.309 80.8397C536.899 80.8397 538.706 82.8404 538.706 82.8404Z" fill="#090814"/>
<path d="M542.724 153.504L535.066 152.75L533.885 156.896C533.885 156.896 521.429 167.448 527.858 168.203C534.286 168.957 540.313 164.812 540.313 164.812L549.156 160.054C549.156 160.054 548.549 151.125 546.139 151.125C543.728 151.125 542.724 153.504 542.724 153.504Z" fill="#090814"/>
<path d="M580.906 95.8178C580.065 98.5248 577.894 100.311 576.058 99.8088C574.222 99.3066 573.416 96.7052 574.257 93.9976C574.578 92.9116 575.171 91.9134 575.987 91.0866L579.706 79.6605L585.385 81.4123L581.116 92.4903C581.331 93.599 581.259 94.7398 580.907 95.8172L580.906 95.8178Z" fill="#FFB6B6"/>
<path d="M584.837 25.808L581.876 25.0249C579.083 30.2361 577.882 36.0705 578.406 41.8821L579.868 58.0989L575.046 86.603L584.498 88.8966L591.946 53.1258L584.837 25.808Z" fill="#E6E6E6"/>
<path d="M521.149 31.6512L520.756 20.0032C520.753 19.9094 520.77 19.8161 520.808 19.7291C520.845 19.6421 520.901 19.5634 520.973 19.498C521.045 19.4326 521.13 19.3819 521.224 19.3493C521.318 19.3166 521.418 19.3027 521.518 19.3084L531.372 19.8624C531.47 19.868 531.567 19.8927 531.655 19.9348C531.743 19.977 531.821 20.0357 531.884 20.1074C531.947 20.1791 531.993 20.2622 532.02 20.3515C532.047 20.4408 532.055 20.5343 532.041 20.6263L530.374 32.2066C530.35 32.3759 530.257 32.5301 530.116 32.6382C529.975 32.7464 529.796 32.8004 529.614 32.7894L521.82 32.3057C521.743 32.3011 521.668 32.2849 521.596 32.2577C521.467 32.2087 521.356 32.1255 521.277 32.0182C521.197 31.911 521.153 31.7843 521.149 31.6538L521.149 31.6512Z" fill="#17A589"/>
<path d="M520.768 18.9129C520.904 18.8995 521.091 18.8829 521.314 18.865C521.252 18.7574 521.231 18.6331 521.256 18.5131L521.432 17.6404C521.454 17.53 521.512 17.429 521.599 17.3517C521.686 17.2744 521.797 17.2247 521.915 17.2098C523.366 17.0281 528.357 16.5342 531.499 17.8714C531.595 17.9129 531.677 17.979 531.735 18.062C531.794 18.145 531.826 18.2416 531.829 18.341L531.857 19.2719C531.861 19.382 531.828 19.4905 531.762 19.5822C532.024 19.6462 532.284 19.7178 532.542 19.7939C532.621 19.8176 532.692 19.8622 532.744 19.9225C532.797 19.9828 532.83 20.0561 532.839 20.1337L532.889 20.5303C532.895 20.5892 532.888 20.6487 532.868 20.7047C532.848 20.7607 532.814 20.8119 532.771 20.8546C532.727 20.8973 532.674 20.9305 532.615 20.9518C532.556 20.9732 532.493 20.9822 532.43 20.9782L520.648 20.2354C520.585 20.2314 520.524 20.2146 520.468 20.186C520.413 20.1574 520.365 20.1178 520.328 20.07C520.291 20.0222 520.265 19.9673 520.253 19.9092C520.241 19.8511 520.243 19.7913 520.258 19.7338L520.394 19.222C520.415 19.1406 520.462 19.0672 520.529 19.0119C520.596 18.9566 520.679 18.922 520.768 18.9129Z" fill="#0B2B3F"/>
<path d="M569.68 22.1758C575.187 22.1758 579.652 17.9877 579.652 12.8214C579.652 7.65515 575.187 3.46704 569.68 3.46704C564.172 3.46704 559.707 7.65515 559.707 12.8214C559.707 17.9877 564.172 22.1758 569.68 22.1758Z" fill="#FFB7B7"/>
<path d="M576.515 3.21756L576.714 2.21566L574.043 1.75052C574.043 1.75052 570.265 -1.49898 565.931 0.854815C561.596 3.20861 559.697 4.43445 559.697 4.43445L557.698 6.1619L559.198 6.9418L557.298 8.16572L558.9 8.44467L557.536 9.762L559.787 14.0416C559.787 14.0416 560.207 10.2271 563.412 10.7857C566.617 11.3442 571.149 7.98593 571.149 7.98593L578.071 14.8957C578.071 14.8957 578.129 11.8106 580 12.1292C580.006 12.1254 582.293 4.74155 576.515 3.21756Z" fill="#090814"/>
</g>
<path d="M119.948 341.721H118.626V307.693C118.626 302.47 116.418 297.461 112.488 293.768C108.558 290.075 103.227 288 97.6695 288H20.9561C15.3982 288 10.0679 290.075 6.13791 293.768C2.20788 297.461 0 302.47 0 307.693V494.368C0 499.591 2.20788 504.6 6.13791 508.293C10.0679 511.986 15.3982 514.061 20.9561 514.061H97.6695C103.227 514.061 108.558 511.986 112.488 508.293C116.418 504.6 118.626 499.591 118.626 494.368V365.941H119.948L119.948 341.721Z" fill="#090814"/>
<path d="M98.518 293.124H88.5044C88.9649 294.185 89.1407 295.336 89.0163 296.476C88.8919 297.615 88.4712 298.709 87.7911 299.66C87.111 300.611 86.1924 301.39 85.1163 301.929C84.0403 302.468 82.8397 302.75 81.6204 302.75H37.6702C36.4508 302.75 35.2502 302.468 34.1741 301.929C33.0979 301.391 32.1793 300.611 31.4992 299.66C30.819 298.709 30.3982 297.616 30.2738 296.476C30.1494 295.336 30.3252 294.185 30.7858 293.124H21.4334C17.2826 293.124 13.3019 294.673 10.3669 297.431C7.43184 300.189 5.78296 303.93 5.78296 307.831V494.232C5.78296 498.132 7.43184 501.873 10.3669 504.631C13.3019 507.389 17.2826 508.939 21.4334 508.939H98.5149C100.57 508.939 102.605 508.558 104.504 507.819C106.403 507.08 108.128 505.997 109.581 504.631C111.035 503.266 112.187 501.644 112.974 499.86C113.76 498.075 114.165 496.163 114.165 494.232V307.831C114.165 303.931 112.517 300.191 109.583 297.432C106.648 294.674 102.668 293.125 98.518 293.124Z" fill="white"/>
<path d="M96.0907 443.861H23.8574C21.9215 443.859 20.0655 443.135 18.6966 441.849C17.3278 440.562 16.5578 438.818 16.5557 436.999V347.116C16.5578 345.296 17.3278 343.552 18.6966 342.266C20.0655 340.979 21.9215 340.256 23.8574 340.254H96.0907C98.0266 340.256 99.8826 340.979 101.252 342.266C102.62 343.552 103.39 345.296 103.392 347.116V436.997C103.391 438.817 102.621 440.561 101.252 441.848C99.8832 443.135 98.0269 443.859 96.0907 443.861Z" fill="#E6E6E6"/>
<path d="M91.013 438.142H28.9352C27.2164 438.14 25.5686 437.497 24.3532 436.355C23.1378 435.213 22.4542 433.665 22.4521 432.049V352.067C22.4541 350.451 23.1377 348.903 24.3531 347.761C25.5685 346.619 27.2164 345.976 28.9352 345.974H91.013C92.7323 345.976 94.3808 346.618 95.5968 347.76C96.8128 348.902 97.4968 350.451 97.4987 352.067V432.049C97.4968 433.665 96.8128 435.214 95.5968 436.356C94.3808 437.498 92.7323 438.141 91.013 438.142Z" fill="white"/>
<path d="M84.8204 361.174H35.1273C34.6973 361.174 34.2848 361.013 33.9808 360.728C33.6767 360.442 33.5059 360.054 33.5059 359.65C33.5059 359.246 33.6767 358.859 33.9808 358.573C34.2848 358.287 34.6973 358.127 35.1273 358.127H84.8204C85.2505 358.127 85.6629 358.287 85.9669 358.573C86.271 358.859 86.4418 359.246 86.4418 359.65C86.4418 360.054 86.271 360.442 85.9669 360.728C85.6629 361.013 85.2505 361.174 84.8204 361.174Z" fill="#E4E4E4"/>
<path d="M84.8204 367.192H35.1273C34.6973 367.192 34.2848 367.032 33.9808 366.746C33.6767 366.46 33.5059 366.073 33.5059 365.668C33.5059 365.264 33.6767 364.877 33.9808 364.591C34.2848 364.305 34.6973 364.145 35.1273 364.145H84.8204C85.2505 364.145 85.6629 364.305 85.9669 364.591C86.271 364.877 86.4418 365.264 86.4418 365.668C86.4418 366.073 86.271 366.46 85.9669 366.746C85.6629 367.032 85.2505 367.192 84.8204 367.192Z" fill="#17A589"/>
<path d="M56.6682 373.21H35.1273C34.6973 373.21 34.2848 373.05 33.9808 372.764C33.6767 372.478 33.5059 372.091 33.5059 371.687C33.5059 371.282 33.6767 370.895 33.9808 370.609C34.2848 370.323 34.6973 370.163 35.1273 370.163H56.6682C57.0983 370.163 57.5107 370.323 57.8148 370.609C58.1188 370.895 58.2897 371.282 58.2897 371.687C58.2897 372.091 58.1188 372.478 57.8148 372.764C57.5107 373.05 57.0983 373.21 56.6682 373.21Z" fill="#E4E4E4"/>
<path d="M84.8204 385.815H35.1273C34.6973 385.815 34.2848 385.654 33.9808 385.368C33.6767 385.082 33.5059 384.695 33.5059 384.291C33.5059 383.887 33.6767 383.499 33.9808 383.213C34.2848 382.928 34.6973 382.767 35.1273 382.767H84.8204C85.2505 382.767 85.6629 382.928 85.9669 383.213C86.271 383.499 86.4418 383.887 86.4418 384.291C86.4418 384.695 86.271 385.082 85.9669 385.368C85.6629 385.654 85.2505 385.815 84.8204 385.815Z" fill="#E4E4E4"/>
<path d="M84.8204 391.832H35.1273C34.6973 391.832 34.2848 391.671 33.9808 391.386C33.6767 391.1 33.5059 390.712 33.5059 390.308C33.5059 389.904 33.6767 389.516 33.9808 389.231C34.2848 388.945 34.6973 388.784 35.1273 388.784H84.8204C85.2505 388.784 85.6629 388.945 85.9669 389.231C86.271 389.516 86.4418 389.904 86.4418 390.308C86.4418 390.712 86.271 391.1 85.9669 391.386C85.6629 391.671 85.2505 391.832 84.8204 391.832Z" fill="#E4E4E4"/>
<path d="M56.6682 397.851H35.1273C34.6973 397.851 34.2848 397.69 33.9808 397.405C33.6767 397.119 33.5059 396.731 33.5059 396.327C33.5059 395.923 33.6767 395.535 33.9808 395.25C34.2848 394.964 34.6973 394.803 35.1273 394.803H56.6682C57.0983 394.803 57.5107 394.964 57.8148 395.25C58.1188 395.535 58.2897 395.923 58.2897 396.327C58.2897 396.731 58.1188 397.119 57.8148 397.405C57.5107 397.69 57.0983 397.851 56.6682 397.851Z" fill="#E4E4E4"/>
<path d="M84.8204 410.455H35.1273C34.6973 410.455 34.2848 410.294 33.9808 410.008C33.6767 409.723 33.5059 409.335 33.5059 408.931C33.5059 408.527 33.6767 408.139 33.9808 407.854C34.2848 407.568 34.6973 407.407 35.1273 407.407H84.8204C85.2505 407.407 85.6629 407.568 85.9669 407.854C86.271 408.139 86.4418 408.527 86.4418 408.931C86.4418 409.335 86.271 409.723 85.9669 410.008C85.6629 410.294 85.2505 410.455 84.8204 410.455Z" fill="#17A589"/>
<path d="M84.8204 416.473H35.1273C34.6973 416.473 34.2848 416.313 33.9808 416.027C33.6767 415.741 33.5059 415.354 33.5059 414.949C33.5059 414.545 33.6767 414.158 33.9808 413.872C34.2848 413.586 34.6973 413.426 35.1273 413.426H84.8204C85.2505 413.426 85.6629 413.586 85.9669 413.872C86.271 414.158 86.4418 414.545 86.4418 414.949C86.4418 415.354 86.271 415.741 85.9669 416.027C85.6629 416.313 85.2505 416.473 84.8204 416.473Z" fill="#E4E4E4"/>
<path d="M56.6682 422.49H35.1273C34.6973 422.49 34.2848 422.33 33.9808 422.044C33.6767 421.758 33.5059 421.371 33.5059 420.967C33.5059 420.562 33.6767 420.175 33.9808 419.889C34.2848 419.603 34.6973 419.443 35.1273 419.443H56.6682C57.0983 419.443 57.5107 419.603 57.8148 419.889C58.1188 420.175 58.2897 420.562 58.2897 420.967C58.2897 421.371 58.1188 421.758 57.8148 422.044C57.5107 422.33 57.0983 422.49 56.6682 422.49Z" fill="#E4E4E4"/>
<path d="M87.6807 366.785L141.86 323.235H178.383V323.875H142.112L88.1228 367.271L87.6807 366.785Z" fill="#2F2E41"/>
<path d="M178.383 328.67C181.388 328.67 183.825 326.38 183.825 323.555C183.825 320.731 181.388 318.441 178.383 318.441C175.377 318.441 172.94 320.731 172.94 323.555C172.94 326.38 175.377 328.67 178.383 328.67Z" fill="#17A589"/>
<path d="M215.389 340.579H165.695C165.265 340.579 164.853 340.419 164.549 340.133C164.245 339.847 164.074 339.459 164.074 339.055C164.074 338.651 164.245 338.264 164.549 337.978C164.853 337.692 165.265 337.532 165.695 337.532H215.389C215.819 337.532 216.231 337.692 216.535 337.978C216.839 338.264 217.01 338.651 217.01 339.055C217.01 339.459 216.839 339.847 216.535 340.133C216.231 340.419 215.819 340.579 215.389 340.579Z" fill="#17A589"/>
<path d="M215.389 346.597H165.695C165.265 346.597 164.853 346.436 164.549 346.151C164.245 345.865 164.074 345.477 164.074 345.073C164.074 344.669 164.245 344.281 164.549 343.996C164.853 343.71 165.265 343.549 165.695 343.549H215.389C215.819 343.549 216.231 343.71 216.535 343.996C216.839 344.281 217.01 344.669 217.01 345.073C217.01 345.477 216.839 345.865 216.535 346.151C216.231 346.436 215.819 346.597 215.389 346.597Z" fill="#17A589"/>
<path d="M187.236 352.615H165.695C165.265 352.615 164.853 352.455 164.549 352.169C164.245 351.883 164.074 351.495 164.074 351.091C164.074 350.687 164.245 350.3 164.549 350.014C164.853 349.728 165.265 349.568 165.695 349.568H187.236C187.666 349.568 188.079 349.728 188.383 350.014C188.687 350.3 188.858 350.687 188.858 351.091C188.858 351.495 188.687 351.883 188.383 352.169C188.079 352.455 187.666 352.615 187.236 352.615Z" fill="#17A589"/>
<defs>
<clipPath id="clip0_15_1204">
<rect width="545" height="484" fill="white" transform="translate(82)"/>
</clipPath>
</defs>
</svg>
